<svg xmlns="http://www.w3.org/2000/svg" viewBox="0 0 800 450" width="800" height="450" role="img" aria-hidden="true">
<defs><linearGradient id="sk" x1="0" y1="0" x2="0" y2="1"><stop offset="0" stop-color="#eaf4fb"/><stop offset="1" stop-color="#10182c"/></linearGradient></defs>
<rect width="800" height="450" fill="url(#sk)"/>
<rect y="330" width="800" height="120" fill="#1d2740"/>
<circle cx="40" cy="20" r="2" fill="#ffffff" opacity=".9"/><circle cx="93" cy="57" r="3" fill="#ffffff" opacity=".9"/><circle cx="146" cy="94" r="4" fill="#ffffff" opacity=".9"/><circle cx="199" cy="131" r="2" fill="#ffffff" opacity=".9"/><circle cx="252" cy="38" r="3" fill="#ffffff" opacity=".9"/><circle cx="305" cy="75" r="4" fill="#ffffff" opacity=".9"/><circle cx="358" cy="112" r="2" fill="#ffffff" opacity=".9"/><circle cx="411" cy="149" r="3" fill="#ffffff" opacity=".9"/><circle cx="464" cy="56" r="4" fill="#ffffff" opacity=".9"/><circle cx="517" cy="93" r="2" fill="#ffffff" opacity=".9"/><circle cx="570" cy="130" r="3" fill="#ffffff" opacity=".9"/><circle cx="623" cy="37" r="4" fill="#ffffff" opacity=".9"/><circle cx="676" cy="74" r="2" fill="#ffffff" opacity=".9"/><circle cx="729" cy="111" r="3" fill="#ffffff" opacity=".9"/><circle cx="782" cy="148" r="4" fill="#ffffff" opacity=".9"/><circle cx="75" cy="55" r="2" fill="#ffffff" opacity=".9"/><circle cx="128" cy="92" r="3" fill="#ffffff" opacity=".9"/><circle cx="181" cy="129" r="4" fill="#ffffff" opacity=".9"/><circle cx="234" cy="36" r="2" fill="#ffffff" opacity=".9"/><circle cx="287" cy="73" r="3" fill="#ffffff" opacity=".9"/><circle cx="340" cy="110" r="4" fill="#ffffff" opacity=".9"/><circle cx="393" cy="147" r="2" fill="#ffffff" opacity=".9"/><circle cx="446" cy="54" r="3" fill="#ffffff" opacity=".9"/><circle cx="499" cy="91" r="4" fill="#ffffff" opacity=".9"/><circle cx="552" cy="128" r="2" fill="#ffffff" opacity=".9"/><circle cx="605" cy="35" r="3" fill="#ffffff" opacity=".9"/><path d="M-20 120 q160 -70 300 10 q150 70 300 -30 q120 -60 240 10 L820 250 q-130 -50 -250 10 q-150 70 -300 -20 q-140 -80 -290 20z" fill="#5fe0a8" opacity=".55"/><path d="M-20 180 q170 -60 320 20 q160 80 300 -20 q110 -70 220 10 L820 300 q-120 -40 -230 20 q-150 80 -310 -10 q-150 -80 -300 20z" fill="#3fc98f" opacity=".45"/><path d="M-20 90 q180 -60 340 20 q150 70 290 -30 L810 190 q-140 60 -290 0 q-160 -70 -320 10z" fill="#b98ae0" opacity=".35"/><rect y="330" width="800" height="120" fill="#1d2740"/><g transform="translate(20,344) scale(0.5)"><rect x="-6" y="-10" width="12" height="40" fill="#7d4f1d"/><polygon points="0,-90 -34,-20 34,-20" fill="#132033"/><polygon points="0,-115 -26,-55 26,-55" fill="#132033"/></g><g transform="translate(67,344) scale(0.62)"><rect x="-6" y="-10" width="12" height="40" fill="#7d4f1d"/><polygon points="0,-90 -34,-20 34,-20" fill="#132033"/><polygon points="0,-115 -26,-55 26,-55" fill="#132033"/></g><g transform="translate(114,344) scale(0.74)"><rect x="-6" y="-10" width="12" height="40" fill="#7d4f1d"/><polygon points="0,-90 -34,-20 34,-20" fill="#132033"/><polygon points="0,-115 -26,-55 26,-55" fill="#132033"/></g><g transform="translate(161,344) scale(0.5)"><rect x="-6" y="-10" width="12" height="40" fill="#7d4f1d"/><polygon points="0,-90 -34,-20 34,-20" fill="#132033"/><polygon points="0,-115 -26,-55 26,-55" fill="#132033"/></g><g transform="translate(208,344) scale(0.62)"><rect x="-6" y="-10" width="12" height="40" fill="#7d4f1d"/><polygon points="0,-90 -34,-20 34,-20" fill="#132033"/><polygon points="0,-115 -26,-55 26,-55" fill="#132033"/></g><g transform="translate(255,344) scale(0.74)"><rect x="-6" y="-10" width="12" height="40" fill="#7d4f1d"/><polygon points="0,-90 -34,-20 34,-20" fill="#132033"/><polygon points="0,-115 -26,-55 26,-55" fill="#132033"/></g><g transform="translate(302,344) scale(0.5)"><rect x="-6" y="-10" width="12" height="40" fill="#7d4f1d"/><polygon points="0,-90 -34,-20 34,-20" fill="#132033"/><polygon points="0,-115 -26,-55 26,-55" fill="#132033"/></g><g transform="translate(349,344) scale(0.62)"><rect x="-6" y="-10" width="12" height="40" fill="#7d4f1d"/><polygon points="0,-90 -34,-20 34,-20" fill="#132033"/><polygon points="0,-115 -26,-55 26,-55" fill="#132033"/></g><g transform="translate(396,344) scale(0.74)"><rect x="-6" y="-10" width="12" height="40" fill="#7d4f1d"/><polygon points="0,-90 -34,-20 34,-20" fill="#132033"/><polygon points="0,-115 -26,-55 26,-55" fill="#132033"/></g><g transform="translate(443,344) scale(0.5)"><rect x="-6" y="-10" width="12" height="40" fill="#7d4f1d"/><polygon points="0,-90 -34,-20 34,-20" fill="#132033"/><polygon points="0,-115 -26,-55 26,-55" fill="#132033"/></g><g transform="translate(490,344) scale(0.62)"><rect x="-6" y="-10" width="12" height="40" fill="#7d4f1d"/><polygon points="0,-90 -34,-20 34,-20" fill="#132033"/><polygon points="0,-115 -26,-55 26,-55" fill="#132033"/></g><g transform="translate(537,344) scale(0.74)"><rect x="-6" y="-10" width="12" height="40" fill="#7d4f1d"/><polygon points="0,-90 -34,-20 34,-20" fill="#132033"/><polygon points="0,-115 -26,-55 26,-55" fill="#132033"/></g><g transform="translate(584,344) scale(0.5)"><rect x="-6" y="-10" width="12" height="40" fill="#7d4f1d"/><polygon points="0,-90 -34,-20 34,-20" fill="#132033"/><polygon points="0,-115 -26,-55 26,-55" fill="#132033"/></g><g transform="translate(631,344) scale(0.62)"><rect x="-6" y="-10" width="12" height="40" fill="#7d4f1d"/><polygon points="0,-90 -34,-20 34,-20" fill="#132033"/><polygon points="0,-115 -26,-55 26,-55" fill="#132033"/></g><g transform="translate(678,344) scale(0.74)"><rect x="-6" y="-10" width="12" height="40" fill="#7d4f1d"/><polygon points="0,-90 -34,-20 34,-20" fill="#132033"/><polygon points="0,-115 -26,-55 26,-55" fill="#132033"/></g><g transform="translate(725,344) scale(0.5)"><rect x="-6" y="-10" width="12" height="40" fill="#7d4f1d"/><polygon points="0,-90 -34,-20 34,-20" fill="#132033"/><polygon points="0,-115 -26,-55 26,-55" fill="#132033"/></g><g transform="translate(772,344) scale(0.62)"><rect x="-6" y="-10" width="12" height="40" fill="#7d4f1d"/><polygon points="0,-90 -34,-20 34,-20" fill="#132033"/><polygon points="0,-115 -26,-55 26,-55" fill="#132033"/></g><rect y="380" width="800" height="70" fill="#243456"/><path d="M0 396 q200 22 400 0 q200 -22 400 0 v54 H0z" fill="#2c4066" opacity=".8"/></svg>
