<svg xmlns="http://www.w3.org/2000/svg" viewBox="0 0 800 450" width="800" height="450" role="img" aria-hidden="true" xmlns:c2pa="http://c2pa.org/manifest"><metadata><c2pa:manifest>AAAWgmp1bWIAAAAeanVtZGMycGEAEQAQgAAAqgA4m3EDYzJwYQAAABZcanVtYgAAAEdqdW1kYzJtYQARABCAAACqADibcQN1cm46YzJwYToxMDdlN2JiYS0yN2Q3LTQ4OTktYjBiZS1kZGM5OWEyYjBkYmIAAAADl2p1bWIAAAApanVtZGMyYXMAEQAQgAAAqgA4m3EDYzJwYS5hc3NlcnRpb25zAAAAALxqdW1iAAAARGp1bWRjYm9yABEAEIAAAKoAOJtxE2MycGEuaW5ncmVkaWVudC52MwAAAAAYYzJzaDLZCXGDjl/IubSgL8tsthgAAABwY2JvcqNpZGM6Zm9ybWF0bWltYWdlL3N2Zyt4bWxqaW5zdGFuY2VJRHgseG1wOmlpZDpiMWI2NGViYi1kZmY1LTRiNzUtOGUzOC01ZmY0ZmRiNDIyMGNscmVsYXRpb25zaGlwaHBhcmVudE9mAAAB4mp1bWIAAABBanVtZGNib3IAEQAQgAAAqgA4m3ETYzJwYS5hY3Rpb25zLnYyAAAAABhjMnNoDog2TYAGQ4XS1+TLDftjxgAAAZljYm9yomdhY3Rpb25zgqJmYWN0aW9ua2MycGEub3BlbmVkanBhcmFtZXRlcnOha2luZ3JlZGllbnRzgaJjdXJseC1zZWxmI2p1bWJmPWMycGEuYXNzZXJ0aW9ucy9jMnBhLmluZ3JlZGllbnQudjNkaGFzaFgg8meD9lVzcuuoqPRfZu8p2YZULnlW4T9L/j35Ro/I+k6kZmFjdGlvbngdY29tLmFudGhyb3BpYy5jbGF1ZGUucHJvdmlkZWRqcGFyYW1ldGVyc6F4H2NvbS5hbnRocm9waWMub3JpZ2luLWNvbmZpZGVuY2VndW5rbm93bmtkZXNjcmlwdGlvbnhmQ2xhdWRlIHByb3ZpZGVkIHRoaXMgZmlsZSBhdCB0aGUgcmVxdWVzdCBvZiBhIHVzZXIgYW5kIG1heSBoYXZlIGNyZWF0ZWQgb3IgbW9kaWZpZWQgdGhlIGZpbGUgY29udGVudHMubXNvZnR3YXJlQWdlbnShZG5hbWVmQ2xhdWRlcmFsbEFjdGlvbnNJbmNsdWRlZPUAAADIanVtYgAAAEBqdW1kY2JvcgARABCAAACqADibcRNjMnBhLmhhc2guZGF0YQAAAAAYYzJzaPN8/WGBPhfn+Ma+Y9gpSjkAAACAY2JvcqVjYWxnZnNoYTI1NmNwYWRNAAAAAAAAAAAAAAAAAGRoYXNoWCC2bM1dSOuMin+Wa5nJm9zdc/JyA5C+4PWTvOFO645xuGRuYW1lbmp1bWJmIG1hbmlmZXN0amV4Y2x1c2lvbnOBomVzdGFydBi0Zmxlbmd0aBkeBAAAAj5qdW1iAAAAJ2p1bWRjMmNsABEAEIAAAKoAOJtxA2MycGEuY2xhaW0udjIAAAACD2Nib3KlY2FsZ2ZzaGEyNTZpc2lnbmF0dXJleE1zZWxmI2p1bWJmPS9jMnBhL3VybjpjMnBhOjEwN2U3YmJhLTI3ZDctNDg5OS1iMGJlLWRkYzk5YTJiMGRiYi9jMnBhLnNpZ25hdHVyZWppbnN0YW5jZUlEeCx4bXA6aWlkOmUzMjQ1ZGQ1LTc1N2QtNGE2MS1iN2RmLWRiZDg0ZmNjZGNkNnJjcmVhdGVkX2Fzc2VydGlvbnODomN1cmx4LXNlbGYjanVtYmY9YzJwYS5hc3NlcnRpb25zL2MycGEuaW5ncmVkaWVudC52M2RoYXNoWCDyZ4P2VXNy66io9F9m7ynZhlQueVbhP0v+PflGj8j6TqJjdXJseCpzZWxmI2p1bWJmPWMycGEuYXNzZXJ0aW9ucy9jMnBhLmFjdGlvbnMudjJkaGFzaFggsU5zY9TVHGmiYqEqXi8VkST3sSEKYhRN+OiKXzq5ZbeiY3VybHgpc2VsZiNqdW1iZj1jMnBhLmFzc2VydGlvbnMvYzJwYS5oYXNoLmRhdGFkaGFzaFgg46FnES04MxVbc6otblBgD9N1SMeCz5/l0qlnRVb28Th0Y2xhaW1fZ2VuZXJhdG9yX2luZm+jZG5hbWVvQW50aHJvcGljIEZpbGVzZ3ZlcnNpb25lMS4wLjBrc3BlY1ZlcnNpb25lMi40LjAAABA4anVtYgAAAChqdW1kYzJjcwARABCAAACqADibcQNjMnBhLnNpZ25hdHVyZQAAABAIY2JvctKEWQISogEmGCFZAgowggIGMIIBjaADAgECAhRA5aAK7sI50L64g/oGQgU9Z1UTADAKBggqhkjOPQQDAzBJMRcwFQYDVQQKEw5BbnRocm9waWMsIFBCQzEuMCwGA1UEAxMlQW50aHJvcGljIENvbnRlbnQgQ3JlZGVudGlhbHMgUm9vdCBDQTAeFw0yNjA4MDcxODQzNTZaFw0yODA4MDYxOTQzNTZaMEQxFzAVBgNVBAoTDkFudGhyb3BpYywgUEJDMSkwJwYDVQQDEyBBbnRocm9waWMgQ2xhdWRlIENvbnRlbnQgU2lnbmluZzBZMBMGByqGSM49AgEGCCqGSM49AwEHA0IABJh6CmvLUBgFFNU0vUKlOVtE6djd17L5SuwX0LemFisBM3dkd/3cyjxFA3Qo5S46fX0/ihY0VZ7mfb9KF703t5OjWDBWMA4GA1UdDwEB/wQEAwIHgDAVBgNVHSUEDjAMBgorBgEEAYPoXgIBMAwGA1UdEwEB/wQCMAAwHwYDVR0jBBgwFoAUzlHiBIFOZFsj+OPEz5o+nMHXXMIwCgYIKoZIzj0EAwMDZwAwZAIwMXMdFJ4BetLLVY7ORuE9noqbbAZOZn/aArXyTwFAZfKrPzxF2vPoJNf1+UCdg1XGAjBwX1zd9WGqYkqmL5SFqw1QySjr1zJfpJM9+1rdDwSPLMOPOjKuiXjoU/pUUeG9RwmhY3BhZFkNngAAAAAAAAAAAAAAAAAAAAAAAAAAAAAAAAAAAAAAAAAAAAAAAAAAAAAAAAAAAAAAAAAAAAAAAAAAAAAAAAAAAAAAAAAAAAAAAAAAAAAAAAAAAAAAAAAAAAAAAAAAAAAAAAAAAAAAAAAAAAAAAAAAAAAAAAAAAAAAAAAAAAAAAAAAAAAAAAAAAAAAAAAAAAAAAAAAAAAAAAAAAAAAAAAAAAAAAAAAAAAAAAAAAAAAAAAAAAAAAAAAAAAAAAAAAAAAAAAAAAAAAAAAAAAAAAAAAAAAAAAAAAAAAAAAAAAAAAAAAAAAAAAAAAAAAAAAAAAAAAAAAAAAAAAAAAAAAAAAAAAAAAAAAAAAAAAAAAAAAAAAAAAAAAAAAAAAAAAAAAAAAAAAAAAAAAAAAAAAAAAAAAAAAAAAAAAAAAAAAAAAAAAAAAAAAAAAAAAAAAAAAAAAAAAAAAAAAAAAAAAAAAAAAAAAAAAAAAAAAAAAAAAAAAAAAAAAAAAAAAAAAAAAAAAAAAAAAAAAAAAAAAAAAAAAAAAAAAAAAAAAAAAAAAAAAAAAAAAAAAAAAAAAAAAAAAAAAAAAAAAAAAAAAAAAAAAAAAAAAAAAAAAAAAAAAAAAAAAAAAAAAAAAAAAAAAAAAAAAAAAAAAAAAAAAAAAAAAAAAAAAAAAAAAAAAAAAAAAAAAAAAAAAAAAAAAAAAAAAAAAAAAAAAAAAAAAAAAAAAAAAAAAAAAAAAAAAAAAAAAAAAAAAAAAAAAAAAAAAAAAAAAAAAAAAAAAAAAAAAAAAAAAAAAAAAAAAAAAAAAAAAAAAAAAAAAAAAAAAAAAAAAAAAAAAAAAAAAAAAAAAAAAAAAAAAAAAAAAAAAAAAAAAAAAAAAAAAAAAAAAAAAAAAAAAAAAAAAAAAAAAAAAAAAAAAAAAAAAAAAAAAAAAAAAAAAAAAAAAAAAAAAAAAAAAAAAAAAAAAAAAAAAAAAAAAAAAAAAAAAAAAAAAAAAAAAAAAAAAAAAAAAAAAAAAAAAAAAAAAAAAAAAAAAAAAAAAAAAAAAAAAAAAAAAAAAAAAAAAAAAAAAAAAAAAAAAAAAAAAAAAAAAAAAAAAAAAAAAAAAAAAAAAAAAAAAAAAAAAAAAAAAAAAAAAAAAAAAAAAAAAAAAAAAAAAAAAAAAAAAAAAAAAAAAAAAAAAAAAAAAAAAAAAAAAAAAAAAAAAAAAAAAAAAAAAAAAAAAAAAAAAAAAAAAAAAAAAAAAAAAAAAAAAAAAAAAAAAAAAAAAAAAAAAAAAAAAAAAAAAAAAAAAAAAAAAAAAAAAAAAAAAAAAAAAAAAAAAAAAAAAAAAAAAAAAAAAAAAAAAAAAAAAAAAAAAAAAAAAAAAAAAAAAAAAAAAAAAAAAAAAAAAAAAAAAAAAAAAAAAAAAAAAAAAAAAAAAAAAAAAAAAAAAAAAAAAAAAAAAAAAAAAAAAAAAAAAAAAAAAAAAAAAAAAAAAAAAAAAAAAAAAAAAAAAAAAAAAAAAAAAAAAAAAAAAAAAAAAAAAAAAAAAAAAAAAAAAAAAAAAAAAAAAAAAAAAAAAAAAAAAAAAAAAAAAAAAAAAAAAAAAAAAAAAAAAAAAAAAAAAAAAAAAAAAAAAAAAAAAAAAAAAAAAAAAAAAAAAAAAAAAAAAAAAAAAAAAAAAAAAAAAAAAAAAAAAAAAAAAAAAAAAAAAAAAAAAAAAAAAAAAAAAAAAAAAAAAAAAAAAAAAAAAAAAAAAAAAAAAAAAAAAAAAAAAAAAAAAAAAAAAAAAAAAAAAAAAAAAAAAAAAAAAAAAAAAAAAAAAAAAAAAAAAAAAAAAAAAAAAAAAAAAAAAAAAAAAAAAAAAAAAAAAAAAAAAAAAAAAAAAAAAAAAAAAAAAAAAAAAAAAAAAAAAAAAAAAAAAAAAAAAAAAAAAAAAAAAAAAAAAAAAAAAAAAAAAAAAAAAAAAAAAAAAAAAAAAAAAAAAAAAAAAAAAAAAAAAAAAAAAAAAAAAAAAAAAAAAAAAAAAAAAAAAAAAAAAAAAAAAAAAAAAAAAAAAAAAAAAAAAAAAAAAAAAAAAAAAAAAAAAAAAAAAAAAAAAAAAAAAAAAAAAAAAAAAAAAAAAAAAAAAAAAAAAAAAAAAAAAAAAAAAAAAAAAAAAAAAAAAAAAAAAAAAAAAAAAAAAAAAAAAAAAAAAAAAAAAAAAAAAAAAAAAAAAAAAAAAAAAAAAAAAAAAAAAAAAAAAAAAAAAAAAAAAAAAAAAAAAAAAAAAAAAAAAAAAAAAAAAAAAAAAAAAAAAAAAAAAAAAAAAAAAAAAAAAAAAAAAAAAAAAAAAAAAAAAAAAAAAAAAAAAAAAAAAAAAAAAAAAAAAAAAAAAAAAAAAAAAAAAAAAAAAAAAAAAAAAAAAAAAAAAAAAAAAAAAAAAAAAAAAAAAAAAAAAAAAAAAAAAAAAAAAAAAAAAAAAAAAAAAAAAAAAAAAAAAAAAAAAAAAAAAAAAAAAAAAAAAAAAAAAAAAAAAAAAAAAAAAAAAAAAAAAAAAAAAAAAAAAAAAAAAAAAAAAAAAAAAAAAAAAAAAAAAAAAAAAAAAAAAAAAAAAAAAAAAAAAAAAAAAAAAAAAAAAAAAAAAAAAAAAAAAAAAAAAAAAAAAAAAAAAAAAAAAAAAAAAAAAAAAAAAAAAAAAAAAAAAAAAAAAAAAAAAAAAAAAAAAAAAAAAAAAAAAAAAAAAAAAAAAAAAAAAAAAAAAAAAAAAAAAAAAAAAAAAAAAAAAAAAAAAAAAAAAAAAAAAAAAAAAAAAAAAAAAAAAAAAAAAAAAAAAAAAAAAAAAAAAAAAAAAAAAAAAAAAAAAAAAAAAAAAAAAAAAAAAAAAAAAAAAAAAAAAAAAAAAAAAAAAAAAAAAAAAAAAAAAAAAAAAAAAAAAAAAAAAAAAAAAAAAAAAAAAAAAAAAAAAAAAAAAAAAAAAAAAAAAAAAAAAAAAAAAAAAAAAAAAAAAAAAAAAAAAAAAAAAAAAAAAAAAAAAAAAAAAAAAAAAAAAAAAAAAAAAAAAAAAAAAAAAAAAAAAAAAAAAAAAAAAAAAAAAAAAAAAAAAAAAAAAAAAAAAAAAAAAAAAAAAAAAAAAAAAAAAAAAAAAAAAAAAAAAAAAAAAAAAAAAAAAAAAAAAAAAAAAAAAAAAAAAAAAAAAAAAAAAAAAAAAAAAAAAAAAAAAAAAAAAAAAAAAAAAAAAAAAAAAAAAAAAAAAAAAAAAAAAAAAAAAAAAAAAAAAAAAAAAAAAAAAAAAAAAAAAAAAAAAAAAAAAAAAAAAAAAAAAAAAAAAAAAAAAAAAAAAAAAAAAAAAAAAAAAAAAAAAAAAAAAAAAAAAAAAAAAAAAAAAAAAAAAAAAAAAAAAAAAAAAAAAAAAAAAAAAAAAAAAAAAAAAAAAAAAAAAAAAAAAAAAAAAAAAAAAAAAAAAAAAAAAAAAAAAAAAAAAAAAAAAAAAAAAAAAAAAAAAAAAAAAAAAAAAAAAAAAAAAAAAAAAAAAAAAAAAAAAAAAAAAAAAAAAAAAAAAAAAAAAAAAAAAAAAAAAAAAAAAAAAAAAAAAAAAAAAAAAAAAAAAAAAAAAAAAAAAAAAAAAAAAAAAAAAAAAAAAAAAAAAAAAAAAAAAAAAAAAAAAAAAAAAAAAAAAAAAAAAAAAAAAAAAAAAAAAAAAAAAAAAAAAAAAAAAAAAAAAAAAAAAAAAAAAAAAAAAAAAAAAAAAAAAAAAAAAAAAAAAAAAAAAAAAAAAAAAAAAAAAAAAAAAAAAAAAAAAAAAAAAAAAAAAAAAAAAAAAAAAAAAAAAAAAAAAAAAAAAAAAAAAAAAAAAAAAAAAAAAAAAAAAAAAAAAAAAAAAAAAAAAAAAAAAAAAAAAAAAAAAAAAAAAAAAAAAAAAAAAAAAAAAAAAAAAAAAAAAAAAAAAAAAAAAAAAAAAAAAAAAAAAAAAAAAAAAAAAAAAAAAAAAAAAAAAAAAAAAAAAAAAAAAAAAAAAAAAAAAAAAAAAAAAAAAAAAAAAAAAAAAAAAAAAAAAAAAAAAAAAAAAAAAAAAAAAAAAAAAAAAAAAAAAAAAAAAAAAAAAAAAAAAAAAAAAAAAAAAAAAAAAAAAAAAAAAAAAAAAAAAAAAAAAAAAAAAAAAAAAAAAAAAAAAAAAAAAAAAAAAAAAAAAAAAAAAAAAAAAAAAAAAAAAAAAAAAAAAAAAAAAAAAAAAAAAAAAAAAAAAAAAAAAAAAAAAAAAAAAAAAAAAAAAAAAAAAAAAAAAAAAAAAAAAAAAAAAAAAAAAAAAAAAAAAAAAAAAAAAAAAAAAAAAAAAAAAAAAAAAAAAAAAAAAAAAAAAAAAAAAAAAAAAAAAAAAAAAAAAAAAAAAAAAAAAAAAAAAAAAAAAAAAAAAAAAAAAAAAAAAAAAAAAAAAAAAAAAAAAAAAAAAAAAAAAAAAAAAAAAAAAAAAAAAAAAAAAAAAAAAAAAAAAAAAAAAAAAAAAAAAAAAAAAAAAAAAAAAAAAAAAAAAAAAAAAAAAAAAAAAAAAAAAAAAAAAAAAAAAAAAAAAAAAAAAAAAAAAAAAAAAAAAAAAAAAAAAAAAAAAAAAAAAAAAAAAAAAAAAAAAAAAAAAAAAAAAAAAAAAAAAAAAAAAAAAAAAAAAAAAAAAAAAAAAAAAAAAAAAAAAAAAAAAAPZYQDwRtl3I6bV2m3OjggajkDpJBqHeifXEyJrCUlibnvlPse0zH1SYxff7mHX5v+U/7urYFszbw2GNruN/61c4wks=</c2pa:manifest></metadata>
<defs><linearGradient id="sp" x1="0" y1="0" x2="1" y2="1"><stop offset="0" stop-color="#141a35"/><stop offset="1" stop-color="#28315c"/></linearGradient></defs>
<rect width="800" height="450" fill="url(#sp)"/>
<circle cx="371" cy="217" r="2.1" fill="#ffffff" opacity=".95"/><circle cx="508" cy="306" r="3.0" fill="#ffffff" opacity=".55"/><circle cx="645" cy="395" r="1.6" fill="#ffffff" opacity=".55"/><circle cx="782" cy="34" r="2.5" fill="#ffffff" opacity=".95"/><circle cx="119" cy="123" r="1.2" fill="#ffffff" opacity=".55"/><circle cx="256" cy="212" r="2.1" fill="#ffffff" opacity=".55"/><circle cx="393" cy="301" r="3.0" fill="#ffffff" opacity=".95"/><circle cx="530" cy="390" r="1.6" fill="#ffffff" opacity=".55"/><circle cx="667" cy="29" r="2.5" fill="#ffffff" opacity=".55"/><circle cx="4" cy="118" r="1.2" fill="#ffffff" opacity=".95"/><circle cx="141" cy="207" r="2.1" fill="#ffffff" opacity=".55"/><circle cx="278" cy="296" r="3.0" fill="#ffffff" opacity=".55"/><circle cx="415" cy="385" r="1.6" fill="#ffffff" opacity=".95"/><circle cx="552" cy="24" r="2.5" fill="#ffffff" opacity=".55"/><circle cx="689" cy="113" r="1.2" fill="#ffffff" opacity=".55"/><circle cx="26" cy="202" r="2.1" fill="#ffffff" opacity=".95"/><circle cx="163" cy="291" r="3.0" fill="#ffffff" opacity=".55"/><circle cx="300" cy="380" r="1.6" fill="#ffffff" opacity=".55"/><circle cx="437" cy="19" r="2.5" fill="#ffffff" opacity=".95"/><circle cx="574" cy="108" r="1.2" fill="#ffffff" opacity=".55"/><circle cx="711" cy="197" r="2.1" fill="#ffffff" opacity=".55"/><circle cx="48" cy="286" r="3.0" fill="#ffffff" opacity=".95"/><circle cx="185" cy="375" r="1.6" fill="#ffffff" opacity=".55"/><circle cx="322" cy="14" r="2.5" fill="#ffffff" opacity=".55"/><circle cx="459" cy="103" r="1.2" fill="#ffffff" opacity=".95"/><circle cx="596" cy="192" r="2.1" fill="#ffffff" opacity=".55"/><circle cx="733" cy="281" r="3.0" fill="#ffffff" opacity=".55"/><circle cx="70" cy="370" r="1.6" fill="#ffffff" opacity=".95"/><circle cx="207" cy="9" r="2.5" fill="#ffffff" opacity=".55"/><circle cx="344" cy="98" r="1.2" fill="#ffffff" opacity=".55"/><circle cx="481" cy="187" r="2.1" fill="#ffffff" opacity=".95"/><circle cx="618" cy="276" r="3.0" fill="#ffffff" opacity=".55"/><circle cx="755" cy="365" r="1.6" fill="#ffffff" opacity=".55"/><circle cx="92" cy="4" r="2.5" fill="#ffffff" opacity=".95"/><circle cx="229" cy="93" r="1.2" fill="#ffffff" opacity=".55"/><circle cx="366" cy="182" r="2.1" fill="#ffffff" opacity=".55"/><circle cx="503" cy="271" r="3.0" fill="#ffffff" opacity=".95"/><circle cx="640" cy="360" r="1.6" fill="#ffffff" opacity=".55"/><circle cx="777" cy="449" r="2.5" fill="#ffffff" opacity=".55"/><circle cx="114" cy="88" r="1.2" fill="#ffffff" opacity=".95"/><circle cx="251" cy="177" r="2.1" fill="#ffffff" opacity=".55"/><circle cx="388" cy="266" r="3.0" fill="#ffffff" opacity=".55"/><circle cx="525" cy="355" r="1.6" fill="#ffffff" opacity=".95"/><circle cx="662" cy="444" r="2.5" fill="#ffffff" opacity=".55"/><circle cx="799" cy="83" r="1.2" fill="#ffffff" opacity=".55"/><circle cx="136" cy="172" r="2.1" fill="#ffffff" opacity=".95"/><circle cx="273" cy="261" r="3.0" fill="#ffffff" opacity=".55"/><circle cx="410" cy="350" r="1.6" fill="#ffffff" opacity=".55"/><circle cx="547" cy="439" r="2.5" fill="#ffffff" opacity=".95"/><circle cx="684" cy="78" r="1.2" fill="#ffffff" opacity=".55"/><circle cx="21" cy="167" r="2.1" fill="#ffffff" opacity=".55"/><circle cx="158" cy="256" r="3.0" fill="#ffffff" opacity=".95"/><circle cx="295" cy="345" r="1.6" fill="#ffffff" opacity=".55"/><circle cx="432" cy="434" r="2.5" fill="#ffffff" opacity=".55"/><circle cx="569" cy="73" r="1.2" fill="#ffffff" opacity=".95"/><circle cx="706" cy="162" r="2.1" fill="#ffffff" opacity=".55"/><circle cx="43" cy="251" r="3.0" fill="#ffffff" opacity=".55"/><circle cx="180" cy="340" r="1.6" fill="#ffffff" opacity=".95"/><circle cx="317" cy="429" r="2.5" fill="#ffffff" opacity=".55"/><circle cx="454" cy="68" r="1.2" fill="#ffffff" opacity=".55"/><circle cx="591" cy="157" r="2.1" fill="#ffffff" opacity=".95"/><circle cx="728" cy="246" r="3.0" fill="#ffffff" opacity=".55"/><circle cx="65" cy="335" r="1.6" fill="#ffffff" opacity=".55"/><circle cx="202" cy="424" r="2.5" fill="#ffffff" opacity=".95"/><circle cx="339" cy="63" r="1.2" fill="#ffffff" opacity=".55"/><circle cx="476" cy="152" r="2.1" fill="#ffffff" opacity=".55"/><circle cx="613" cy="241" r="3.0" fill="#ffffff" opacity=".95"/><circle cx="750" cy="330" r="1.6" fill="#ffffff" opacity=".55"/><circle cx="87" cy="419" r="2.5" fill="#ffffff" opacity=".55"/><circle cx="224" cy="58" r="1.2" fill="#ffffff" opacity=".95"/><circle cx="361" cy="147" r="2.1" fill="#ffffff" opacity=".55"/><circle cx="498" cy="236" r="3.0" fill="#ffffff" opacity=".55"/><circle cx="635" cy="325" r="1.6" fill="#ffffff" opacity=".95"/><circle cx="772" cy="414" r="2.5" fill="#ffffff" opacity=".55"/><circle cx="109" cy="53" r="1.2" fill="#ffffff" opacity=".55"/><circle cx="246" cy="142" r="2.1" fill="#ffffff" opacity=".95"/><circle cx="383" cy="231" r="3.0" fill="#ffffff" opacity=".55"/><circle cx="520" cy="320" r="1.6" fill="#ffffff" opacity=".55"/><circle cx="657" cy="409" r="2.5" fill="#ffffff" opacity=".95"/><circle cx="794" cy="48" r="1.2" fill="#ffffff" opacity=".55"/><circle cx="131" cy="137" r="2.1" fill="#ffffff" opacity=".55"/><circle cx="268" cy="226" r="3.0" fill="#ffffff" opacity=".95"/><circle cx="405" cy="315" r="1.6" fill="#ffffff" opacity=".55"/><circle cx="542" cy="404" r="2.5" fill="#ffffff" opacity=".55"/><circle cx="679" cy="43" r="1.2" fill="#ffffff" opacity=".95"/><circle cx="16" cy="132" r="2.1" fill="#ffffff" opacity=".55"/><circle cx="153" cy="221" r="3.0" fill="#ffffff" opacity=".55"/><circle cx="290" cy="310" r="1.6" fill="#ffffff" opacity=".95"/><circle cx="427" cy="399" r="2.5" fill="#ffffff" opacity=".55"/><circle cx="564" cy="38" r="1.2" fill="#ffffff" opacity=".55"/>
<circle cx="760" cy="70" r="34" fill="#f0b429" opacity=".9"/><g transform="translate(0,236)"><rect x="40" y="-9" width="720" height="18" rx="6" fill="#9aa7bb"/><rect x="40" y="-9" width="720" height="6" rx="3" fill="#cfd8e4"/><g transform="translate(60,-110) rotate(0)"><rect width="150" height="62" rx="4" fill="#2a3f6b"/><rect x="6.0" y="4" width="20.0" height="54" fill="#4d7fc4"/><rect x="29.0" y="4" width="20.0" height="54" fill="#4d7fc4"/><rect x="52.0" y="4" width="20.0" height="54" fill="#4d7fc4"/><rect x="75.0" y="4" width="20.0" height="54" fill="#4d7fc4"/><rect x="98.0" y="4" width="20.0" height="54" fill="#4d7fc4"/><rect x="121.0" y="4" width="20.0" height="54" fill="#4d7fc4"/></g><g transform="translate(60,40) rotate(0)"><rect width="150" height="62" rx="4" fill="#2a3f6b"/><rect x="6.0" y="4" width="20.0" height="54" fill="#4d7fc4"/><rect x="29.0" y="4" width="20.0" height="54" fill="#4d7fc4"/><rect x="52.0" y="4" width="20.0" height="54" fill="#4d7fc4"/><rect x="75.0" y="4" width="20.0" height="54" fill="#4d7fc4"/><rect x="98.0" y="4" width="20.0" height="54" fill="#4d7fc4"/><rect x="121.0" y="4" width="20.0" height="54" fill="#4d7fc4"/></g><g transform="translate(596,-110) rotate(0)"><rect width="150" height="62" rx="4" fill="#2a3f6b"/><rect x="6.0" y="4" width="20.0" height="54" fill="#4d7fc4"/><rect x="29.0" y="4" width="20.0" height="54" fill="#4d7fc4"/><rect x="52.0" y="4" width="20.0" height="54" fill="#4d7fc4"/><rect x="75.0" y="4" width="20.0" height="54" fill="#4d7fc4"/><rect x="98.0" y="4" width="20.0" height="54" fill="#4d7fc4"/><rect x="121.0" y="4" width="20.0" height="54" fill="#4d7fc4"/></g><g transform="translate(596,40) rotate(0)"><rect width="150" height="62" rx="4" fill="#2a3f6b"/><rect x="6.0" y="4" width="20.0" height="54" fill="#4d7fc4"/><rect x="29.0" y="4" width="20.0" height="54" fill="#4d7fc4"/><rect x="52.0" y="4" width="20.0" height="54" fill="#4d7fc4"/><rect x="75.0" y="4" width="20.0" height="54" fill="#4d7fc4"/><rect x="98.0" y="4" width="20.0" height="54" fill="#4d7fc4"/><rect x="121.0" y="4" width="20.0" height="54" fill="#4d7fc4"/></g><rect x="300" y="-46" width="210" height="92" rx="44" fill="#cfd8e4"/><rect x="300" y="-46" width="210" height="20" rx="10" fill="#ffffff"/><circle cx="352" cy="0" r="15" fill="#2a3f6b"/><circle cx="404" cy="0" r="15" fill="#2a3f6b"/><circle cx="456" cy="0" r="15" fill="#2a3f6b"/><g transform="translate(405,6) scale(0.3)"><rect x="-60" y="-30" width="120" height="60" fill="#ffffff"/><rect x="-60" y="-30" width="30" height="60" fill="#e32231"/><rect x="30" y="-30" width="30" height="60" fill="#e32231"/><g transform="scale(0.5)"><path d="M0 -50 L7 -30 L22 -36 L18 -20 L34 -25 L28 -10 L48 -6 L36 6 L42 18 L24 15 L26 26 L8 14 L11 50 L-11 50 L-8 14 L-26 26 L-24 15 L-42 18 L-36 6 L-48 -6 L-28 -10 L-34 -25 L-18 -20 L-22 -36 L-7 -30 Z" fill="#e32231"/></g><rect x="-60" y="-30" width="120" height="60" fill="none" stroke="#8d95a6" stroke-width="2"/></g></g><g transform="translate(330,190) rotate(-66) scale(0.92)"><rect x="0" y="-9" width="150" height="18" rx="6" fill="#cfd8e4"/><rect x="0" y="-9" width="150" height="6" rx="3" fill="#ffffff"/><circle cx="0" cy="0" r="16" fill="#9aa7bb"/><circle cx="0" cy="0" r="7" fill="#2f2b45"/><g transform="translate(150,0) rotate(-42)"><rect x="0" y="-8" width="132" height="16" rx="6" fill="#cfd8e4"/><rect x="0" y="-8" width="132" height="5" rx="3" fill="#ffffff"/><circle cx="0" cy="0" r="15" fill="#9aa7bb"/><circle cx="0" cy="0" r="6" fill="#2f2b45"/><g transform="translate(132,0)"><circle cx="0" cy="0" r="13" fill="#9aa7bb"/><rect x="6" y="-16" width="30" height="8" rx="4" fill="#cfd8e4"/><rect x="6" y="8" width="30" height="8" rx="4" fill="#cfd8e4"/><rect x="4" y="-5" width="16" height="10" rx="4" fill="#cfd8e4"/></g></g></g><g transform="translate(330,190)"><circle r="20" fill="#9aa7bb"/><rect x="-30" y="-9" width="26" height="8" rx="4" fill="#cfd8e4"/><rect x="-30" y="1" width="26" height="8" rx="4" fill="#cfd8e4"/><circle r="7" fill="#2f2b45"/></g><g transform="translate(626,378)"><rect x="-46" y="-30" width="92" height="60" rx="14" fill="#e8ecf3"/><rect x="-46" y="-30" width="92" height="14" rx="7" fill="#9aa7bb"/><circle cx="0" cy="4" r="12" fill="#2a3f6b"/><g transform="translate(-150,-16) rotate(0)"><rect width="100" height="34" rx="4" fill="#2a3f6b"/><rect x="6.0" y="4" width="11.666666666666666" height="26" fill="#4d7fc4"/><rect x="20.666666666666664" y="4" width="11.666666666666666" height="26" fill="#4d7fc4"/><rect x="35.33333333333333" y="4" width="11.666666666666666" height="26" fill="#4d7fc4"/><rect x="50.0" y="4" width="11.666666666666666" height="26" fill="#4d7fc4"/><rect x="64.66666666666666" y="4" width="11.666666666666666" height="26" fill="#4d7fc4"/><rect x="79.33333333333333" y="4" width="11.666666666666666" height="26" fill="#4d7fc4"/></g><g transform="translate(50,-16) rotate(0)"><rect width="100" height="34" rx="4" fill="#2a3f6b"/><rect x="6.0" y="4" width="11.666666666666666" height="26" fill="#4d7fc4"/><rect x="20.666666666666664" y="4" width="11.666666666666666" height="26" fill="#4d7fc4"/><rect x="35.33333333333333" y="4" width="11.666666666666666" height="26" fill="#4d7fc4"/><rect x="50.0" y="4" width="11.666666666666666" height="26" fill="#4d7fc4"/><rect x="64.66666666666666" y="4" width="11.666666666666666" height="26" fill="#4d7fc4"/><rect x="79.33333333333333" y="4" width="11.666666666666666" height="26" fill="#4d7fc4"/></g></g></svg>
