<svg xmlns="http://www.w3.org/2000/svg" viewBox="0 0 800 450" width="800" height="450" role="img" aria-hidden="true">
<defs><linearGradient id="sp" x1="0" y1="0" x2="1" y2="1"><stop offset="0" stop-color="#141a35"/><stop offset="1" stop-color="#28315c"/></linearGradient></defs>
<rect width="800" height="450" fill="url(#sp)"/>
<circle cx="371" cy="217" r="2.1" fill="#ffffff" opacity=".95"/><circle cx="508" cy="306" r="3.0" fill="#ffffff" opacity=".55"/><circle cx="645" cy="395" r="1.6" fill="#ffffff" opacity=".55"/><circle cx="782" cy="34" r="2.5" fill="#ffffff" opacity=".95"/><circle cx="119" cy="123" r="1.2" fill="#ffffff" opacity=".55"/><circle cx="256" cy="212" r="2.1" fill="#ffffff" opacity=".55"/><circle cx="393" cy="301" r="3.0" fill="#ffffff" opacity=".95"/><circle cx="530" cy="390" r="1.6" fill="#ffffff" opacity=".55"/><circle cx="667" cy="29" r="2.5" fill="#ffffff" opacity=".55"/><circle cx="4" cy="118" r="1.2" fill="#ffffff" opacity=".95"/><circle cx="141" cy="207" r="2.1" fill="#ffffff" opacity=".55"/><circle cx="278" cy="296" r="3.0" fill="#ffffff" opacity=".55"/><circle cx="415" cy="385" r="1.6" fill="#ffffff" opacity=".95"/><circle cx="552" cy="24" r="2.5" fill="#ffffff" opacity=".55"/><circle cx="689" cy="113" r="1.2" fill="#ffffff" opacity=".55"/><circle cx="26" cy="202" r="2.1" fill="#ffffff" opacity=".95"/><circle cx="163" cy="291" r="3.0" fill="#ffffff" opacity=".55"/><circle cx="300" cy="380" r="1.6" fill="#ffffff" opacity=".55"/><circle cx="437" cy="19" r="2.5" fill="#ffffff" opacity=".95"/><circle cx="574" cy="108" r="1.2" fill="#ffffff" opacity=".55"/><circle cx="711" cy="197" r="2.1" fill="#ffffff" opacity=".55"/><circle cx="48" cy="286" r="3.0" fill="#ffffff" opacity=".95"/><circle cx="185" cy="375" r="1.6" fill="#ffffff" opacity=".55"/><circle cx="322" cy="14" r="2.5" fill="#ffffff" opacity=".55"/><circle cx="459" cy="103" r="1.2" fill="#ffffff" opacity=".95"/><circle cx="596" cy="192" r="2.1" fill="#ffffff" opacity=".55"/><circle cx="733" cy="281" r="3.0" fill="#ffffff" opacity=".55"/><circle cx="70" cy="370" r="1.6" fill="#ffffff" opacity=".95"/><circle cx="207" cy="9" r="2.5" fill="#ffffff" opacity=".55"/><circle cx="344" cy="98" r="1.2" fill="#ffffff" opacity=".55"/><circle cx="481" cy="187" r="2.1" fill="#ffffff" opacity=".95"/><circle cx="618" cy="276" r="3.0" fill="#ffffff" opacity=".55"/><circle cx="755" cy="365" r="1.6" fill="#ffffff" opacity=".55"/><circle cx="92" cy="4" r="2.5" fill="#ffffff" opacity=".95"/><circle cx="229" cy="93" r="1.2" fill="#ffffff" opacity=".55"/><circle cx="366" cy="182" r="2.1" fill="#ffffff" opacity=".55"/><circle cx="503" cy="271" r="3.0" fill="#ffffff" opacity=".95"/><circle cx="640" cy="360" r="1.6" fill="#ffffff" opacity=".55"/><circle cx="777" cy="449" r="2.5" fill="#ffffff" opacity=".55"/><circle cx="114" cy="88" r="1.2" fill="#ffffff" opacity=".95"/><circle cx="251" cy="177" r="2.1" fill="#ffffff" opacity=".55"/><circle cx="388" cy="266" r="3.0" fill="#ffffff" opacity=".55"/><circle cx="525" cy="355" r="1.6" fill="#ffffff" opacity=".95"/><circle cx="662" cy="444" r="2.5" fill="#ffffff" opacity=".55"/><circle cx="799" cy="83" r="1.2" fill="#ffffff" opacity=".55"/><circle cx="136" cy="172" r="2.1" fill="#ffffff" opacity=".95"/><circle cx="273" cy="261" r="3.0" fill="#ffffff" opacity=".55"/><circle cx="410" cy="350" r="1.6" fill="#ffffff" opacity=".55"/><circle cx="547" cy="439" r="2.5" fill="#ffffff" opacity=".95"/><circle cx="684" cy="78" r="1.2" fill="#ffffff" opacity=".55"/><circle cx="21" cy="167" r="2.1" fill="#ffffff" opacity=".55"/><circle cx="158" cy="256" r="3.0" fill="#ffffff" opacity=".95"/><circle cx="295" cy="345" r="1.6" fill="#ffffff" opacity=".55"/><circle cx="432" cy="434" r="2.5" fill="#ffffff" opacity=".55"/><circle cx="569" cy="73" r="1.2" fill="#ffffff" opacity=".95"/><circle cx="706" cy="162" r="2.1" fill="#ffffff" opacity=".55"/><circle cx="43" cy="251" r="3.0" fill="#ffffff" opacity=".55"/><circle cx="180" cy="340" r="1.6" fill="#ffffff" opacity=".95"/><circle cx="317" cy="429" r="2.5" fill="#ffffff" opacity=".55"/><circle cx="454" cy="68" r="1.2" fill="#ffffff" opacity=".55"/><circle cx="591" cy="157" r="2.1" fill="#ffffff" opacity=".95"/><circle cx="728" cy="246" r="3.0" fill="#ffffff" opacity=".55"/><circle cx="65" cy="335" r="1.6" fill="#ffffff" opacity=".55"/><circle cx="202" cy="424" r="2.5" fill="#ffffff" opacity=".95"/><circle cx="339" cy="63" r="1.2" fill="#ffffff" opacity=".55"/><circle cx="476" cy="152" r="2.1" fill="#ffffff" opacity=".55"/><circle cx="613" cy="241" r="3.0" fill="#ffffff" opacity=".95"/><circle cx="750" cy="330" r="1.6" fill="#ffffff" opacity=".55"/><circle cx="87" cy="419" r="2.5" fill="#ffffff" opacity=".55"/><circle cx="224" cy="58" r="1.2" fill="#ffffff" opacity=".95"/><circle cx="361" cy="147" r="2.1" fill="#ffffff" opacity=".55"/><circle cx="498" cy="236" r="3.0" fill="#ffffff" opacity=".55"/><circle cx="635" cy="325" r="1.6" fill="#ffffff" opacity=".95"/><circle cx="772" cy="414" r="2.5" fill="#ffffff" opacity=".55"/><circle cx="109" cy="53" r="1.2" fill="#ffffff" opacity=".55"/><circle cx="246" cy="142" r="2.1" fill="#ffffff" opacity=".95"/><circle cx="383" cy="231" r="3.0" fill="#ffffff" opacity=".55"/><circle cx="520" cy="320" r="1.6" fill="#ffffff" opacity=".55"/><circle cx="657" cy="409" r="2.5" fill="#ffffff" opacity=".95"/><circle cx="794" cy="48" r="1.2" fill="#ffffff" opacity=".55"/><circle cx="131" cy="137" r="2.1" fill="#ffffff" opacity=".55"/><circle cx="268" cy="226" r="3.0" fill="#ffffff" opacity=".95"/><circle cx="405" cy="315" r="1.6" fill="#ffffff" opacity=".55"/><circle cx="542" cy="404" r="2.5" fill="#ffffff" opacity=".55"/><circle cx="679" cy="43" r="1.2" fill="#ffffff" opacity=".95"/><circle cx="16" cy="132" r="2.1" fill="#ffffff" opacity=".55"/><circle cx="153" cy="221" r="3.0" fill="#ffffff" opacity=".55"/><circle cx="290" cy="310" r="1.6" fill="#ffffff" opacity=".95"/><circle cx="427" cy="399" r="2.5" fill="#ffffff" opacity=".55"/><circle cx="564" cy="38" r="1.2" fill="#ffffff" opacity=".55"/>
<circle cx="400" cy="880" r="560" fill="#2f7fc0"/><circle cx="400" cy="880" r="560" fill="none" stroke="#8fd0f2" stroke-width="10" opacity=".55"/><g opacity=".85" fill="#4f9a5c"><ellipse cx="250" cy="352" rx="120" ry="34"/><ellipse cx="520" cy="368" rx="96" ry="26"/><ellipse cx="392" cy="330" rx="58" ry="18"/></g><g opacity=".55" fill="#ffffff"><ellipse cx="180" cy="336" rx="70" ry="16"/><ellipse cx="600" cy="344" rx="84" ry="17"/></g><g transform="translate(120,150)"><path d="M0 40 q40 -34 96 -36 h250 q40 2 56 22 l40 44 h-92 l-30 -22 h-224 q-70 -2 -96 -8 z" fill="#cfd8e4"/><path d="M96 6 h236 v14 h-236 z" fill="#2a3f6b"/><path d="M0 40 q40 -20 96 -22 h250 q34 2 48 14 h-394 z" fill="#ffffff"/><path d="M30 24 q14 -12 34 -13 l4 13 z" fill="#2a3f6b"/><path d="M330 6 l70 -52 l22 8 l-52 44 z" fill="#9aa7bb"/><rect x="352" y="34" width="46" height="18" rx="6" fill="#e32231"/></g><g transform="translate(240,150) rotate(-28) scale(1.0)"><rect x="0" y="-9" width="150" height="18" rx="6" fill="#cfd8e4"/><rect x="0" y="-9" width="150" height="6" rx="3" fill="#ffffff"/><circle cx="0" cy="0" r="16" fill="#9aa7bb"/><circle cx="0" cy="0" r="7" fill="#2f2b45"/><g transform="translate(150,0) rotate(-42)"><rect x="0" y="-8" width="132" height="16" rx="6" fill="#cfd8e4"/><rect x="0" y="-8" width="132" height="5" rx="3" fill="#ffffff"/><circle cx="0" cy="0" r="15" fill="#9aa7bb"/><circle cx="0" cy="0" r="6" fill="#2f2b45"/><g transform="translate(132,0)"><circle cx="0" cy="0" r="13" fill="#9aa7bb"/><rect x="6" y="-16" width="30" height="8" rx="4" fill="#cfd8e4"/><rect x="6" y="8" width="30" height="8" rx="4" fill="#cfd8e4"/><rect x="4" y="-5" width="16" height="10" rx="4" fill="#cfd8e4"/></g></g></g><g transform="translate(560,60)"><rect x="-34" y="-30" width="68" height="60" rx="8" fill="#f0b429"/><rect x="-34" y="-30" width="68" height="16" rx="6" fill="#d99b18"/><g transform="translate(-160,-22) rotate(0)"><rect width="116" height="44" rx="4" fill="#2a3f6b"/><rect x="6.0" y="4" width="14.333333333333332" height="36" fill="#4d7fc4"/><rect x="23.333333333333332" y="4" width="14.333333333333332" height="36" fill="#4d7fc4"/><rect x="40.666666666666664" y="4" width="14.333333333333332" height="36" fill="#4d7fc4"/><rect x="58.0" y="4" width="14.333333333333332" height="36" fill="#4d7fc4"/><rect x="75.33333333333333" y="4" width="14.333333333333332" height="36" fill="#4d7fc4"/><rect x="92.66666666666667" y="4" width="14.333333333333332" height="36" fill="#4d7fc4"/></g><g transform="translate(44,-22) rotate(0)"><rect width="116" height="44" rx="4" fill="#2a3f6b"/><rect x="6.0" y="4" width="14.333333333333332" height="36" fill="#4d7fc4"/><rect x="23.333333333333332" y="4" width="14.333333333333332" height="36" fill="#4d7fc4"/><rect x="40.666666666666664" y="4" width="14.333333333333332" height="36" fill="#4d7fc4"/><rect x="58.0" y="4" width="14.333333333333332" height="36" fill="#4d7fc4"/><rect x="75.33333333333333" y="4" width="14.333333333333332" height="36" fill="#4d7fc4"/><rect x="92.66666666666667" y="4" width="14.333333333333332" height="36" fill="#4d7fc4"/></g><circle cx="0" cy="-44" r="11" fill="#cfd8e4"/></g><g transform="translate(300,214) scale(0.42)"><rect x="-60" y="-30" width="120" height="60" fill="#ffffff"/><rect x="-60" y="-30" width="30" height="60" fill="#e32231"/><rect x="30" y="-30" width="30" height="60" fill="#e32231"/><g transform="scale(0.5)"><path d="M0 -50 L7 -30 L22 -36 L18 -20 L34 -25 L28 -10 L48 -6 L36 6 L42 18 L24 15 L26 26 L8 14 L11 50 L-11 50 L-8 14 L-26 26 L-24 15 L-42 18 L-36 6 L-48 -6 L-28 -10 L-34 -25 L-18 -20 L-22 -36 L-7 -30 Z" fill="#e32231"/></g><rect x="-60" y="-30" width="120" height="60" fill="none" stroke="#8d95a6" stroke-width="2"/></g></svg>
