<svg xmlns="http://www.w3.org/2000/svg" viewBox="0 0 800 450" width="800" height="450" role="img" aria-hidden="true">
<defs><linearGradient id="sk" x1="0" y1="0" x2="0" y2="1"><stop offset="0" stop-color="#eaf4fb"/><stop offset="1" stop-color="#e8eef7"/></linearGradient></defs>
<rect width="800" height="450" fill="url(#sk)"/>
<rect y="300" width="800" height="150" fill="#d8dbe6"/>
<rect y="300" width="800" height="150" fill="#d8dbe6"/><rect x="80" y="150" width="640" height="160" rx="14" fill="#fff4dd"/><rect x="80" y="150" width="640" height="34" rx="14" fill="#9fb8d6"/><rect x="120" y="200" width="120" height="90" rx="8" fill="#cfe6f7"/><rect x="176" y="200" width="6" height="90" fill="#fff4dd"/><rect x="470" y="250" width="190" height="60" rx="10" fill="#ffffff"/><rect x="470" y="242" width="30" height="68" rx="8" fill="#b9c6d6"/><circle cx="520" cy="234" r="17" fill="#f2c9a0"/><path d="M503 228 q17 -16 34 0 q-17 -7 -34 0z" fill="#5d4534"/><path d="M505 252 q15 -8 30 0 v22 h-30z" fill="#8fc98a"/><rect x="290" y="262" width="90" height="48" rx="6" fill="#b98a52"/><rect x="308" y="228" width="26" height="36" rx="5" fill="#9fd6c8"/><rect x="308" y="222" width="26" height="9" rx="3" fill="#8b8698"/><rect x="346" y="238" width="9" height="26" rx="3" fill="#ffffff"/><rect x="348" y="264" width="5" height="14" fill="#8b8698"/><path d="M690 205 a22 22 0 0 1 38 22 l-38 44 -38-44 a22 22 0 0 1 38-22z" fill="#e32231" opacity=".85"/></svg>
