<svg xmlns="http://www.w3.org/2000/svg" viewBox="0 0 800 450" width="800" height="450" role="img" aria-hidden="true">
<defs><linearGradient id="sw" x1="0" y1="0" x2="0" y2="1"><stop offset="0" stop-color="#2f6f9e"/><stop offset="1" stop-color="#1d4a70"/></linearGradient></defs>
<rect width="800" height="150" fill="#cfe6f7"/>
<rect y="150" width="800" height="300" fill="url(#sw)"/>
<g fill="#f7fbff"><path d="M0 130 h250 l24 20 h-274 z"/><path d="M330 132 h210 l20 18 h-230 z"/><path d="M620 128 h180 v22 h-198 z"/></g><g fill="#dbeefb" opacity=".85"><path d="M0 150 h274 l-16 16 h-258 z"/><path d="M330 150 h230 l-14 14 h-216 z"/><path d="M602 150 h198 l0 16 h-184 z"/></g><circle cx="700" cy="60" r="30" fill="#f0b429" opacity=".9"/><g transform="translate(420,268) rotate(-8) scale(0.92)"><path d="M6 -9 q-72 -3 -146 -6 q74 -6 146 -1 z" fill="#f4efe2"/><line x1="-8" y1="-7" x2="-16" y2="4" stroke="#d5cdb8" stroke-width="2.6" stroke-linecap="round" opacity=".9"/><line x1="-23" y1="-7" x2="-31" y2="4" stroke="#d5cdb8" stroke-width="2.6" stroke-linecap="round" opacity=".9"/><line x1="-38" y1="-7" x2="-46" y2="4" stroke="#d5cdb8" stroke-width="2.6" stroke-linecap="round" opacity=".9"/><line x1="-53" y1="-7" x2="-61" y2="4" stroke="#d5cdb8" stroke-width="2.6" stroke-linecap="round" opacity=".9"/><line x1="-68" y1="-7" x2="-76" y2="4" stroke="#d5cdb8" stroke-width="2.6" stroke-linecap="round" opacity=".9"/><line x1="-83" y1="-7" x2="-91" y2="4" stroke="#d5cdb8" stroke-width="2.6" stroke-linecap="round" opacity=".9"/><line x1="-98" y1="-7" x2="-106" y2="4" stroke="#d5cdb8" stroke-width="2.6" stroke-linecap="round" opacity=".9"/><line x1="-113" y1="-7" x2="-121" y2="4" stroke="#d5cdb8" stroke-width="2.6" stroke-linecap="round" opacity=".9"/><line x1="-128" y1="-7" x2="-136" y2="4" stroke="#d5cdb8" stroke-width="2.6" stroke-linecap="round" opacity=".9"/><path d="M0 0 C4 -23 40 -35 92 -35 C168 -35 226 -27 258 -15 L300 -37 L306 33 L258 13 C226 25 168 33 92 33 C40 33 4 21 0 0 Z" fill="#6f7f9c"/><path d="M178 -33 q13 -9 26 0 z" fill="#6f7f9c"/><path d="M204 -33 q13 -9 26 0 z" fill="#6f7f9c"/><path d="M230 -33 q13 -9 26 0 z" fill="#6f7f9c"/><path d="M256 -33 q13 -9 26 0 z" fill="#6f7f9c"/><path d="M8 8 C40 26 90 33 150 32 C200 31 236 24 258 13 C226 25 168 33 92 33 C48 33 16 22 8 8 Z" fill="#9fadc4" opacity=".85"/><path d="M84 26 q6 32 40 42 q-34 6 -58 -26 z" fill="#6f7f9c"/><ellipse cx="26" cy="-11" rx="4.6" ry="5.6" fill="#2f2b45"/><g opacity=".5" fill="#c8d3e2"><ellipse cx="120" cy="-22" rx="15" ry="7"/><ellipse cx="172" cy="-25" rx="11" ry="6"/><ellipse cx="220" cy="-18" rx="13" ry="6"/><ellipse cx="148" cy="4" rx="10" ry="5"/><ellipse cx="200" cy="10" rx="8" ry="4"/></g></g><g transform="translate(330,392) rotate(6) scale(0.52)"><path d="M6 -9 q-72 -3 -146 -6 q74 -6 146 -1 z" fill="#f4efe2"/><line x1="-8" y1="-7" x2="-16" y2="4" stroke="#d5cdb8" stroke-width="2.6" stroke-linecap="round" opacity=".9"/><line x1="-23" y1="-7" x2="-31" y2="4" stroke="#d5cdb8" stroke-width="2.6" stroke-linecap="round" opacity=".9"/><line x1="-38" y1="-7" x2="-46" y2="4" stroke="#d5cdb8" stroke-width="2.6" stroke-linecap="round" opacity=".9"/><line x1="-53" y1="-7" x2="-61" y2="4" stroke="#d5cdb8" stroke-width="2.6" stroke-linecap="round" opacity=".9"/><line x1="-68" y1="-7" x2="-76" y2="4" stroke="#d5cdb8" stroke-width="2.6" stroke-linecap="round" opacity=".9"/><line x1="-83" y1="-7" x2="-91" y2="4" stroke="#d5cdb8" stroke-width="2.6" stroke-linecap="round" opacity=".9"/><line x1="-98" y1="-7" x2="-106" y2="4" stroke="#d5cdb8" stroke-width="2.6" stroke-linecap="round" opacity=".9"/><line x1="-113" y1="-7" x2="-121" y2="4" stroke="#d5cdb8" stroke-width="2.6" stroke-linecap="round" opacity=".9"/><line x1="-128" y1="-7" x2="-136" y2="4" stroke="#d5cdb8" stroke-width="2.6" stroke-linecap="round" opacity=".9"/><path d="M0 0 C4 -23 40 -35 92 -35 C168 -35 226 -27 258 -15 L300 -37 L306 33 L258 13 C226 25 168 33 92 33 C40 33 4 21 0 0 Z" fill="#5e6d88"/><path d="M178 -33 q13 -9 26 0 z" fill="#5e6d88"/><path d="M204 -33 q13 -9 26 0 z" fill="#5e6d88"/><path d="M230 -33 q13 -9 26 0 z" fill="#5e6d88"/><path d="M256 -33 q13 -9 26 0 z" fill="#5e6d88"/><path d="M8 8 C40 26 90 33 150 32 C200 31 236 24 258 13 C226 25 168 33 92 33 C48 33 16 22 8 8 Z" fill="#9fadc4" opacity=".85"/><path d="M84 26 q6 32 40 42 q-34 6 -58 -26 z" fill="#5e6d88"/><ellipse cx="26" cy="-11" rx="4.6" ry="5.6" fill="#2f2b45"/><g opacity=".5" fill="#c8d3e2"><ellipse cx="120" cy="-22" rx="15" ry="7"/><ellipse cx="172" cy="-25" rx="11" ry="6"/><ellipse cx="220" cy="-18" rx="13" ry="6"/><ellipse cx="148" cy="4" rx="10" ry="5"/><ellipse cx="200" cy="10" rx="8" ry="4"/></g></g><g transform="translate(120,196) rotate(-16) scale(0.36)"><path d="M6 -9 q-72 -3 -146 -6 q74 -6 146 -1 z" fill="#f4efe2"/><line x1="-8" y1="-7" x2="-16" y2="4" stroke="#d5cdb8" stroke-width="2.6" stroke-linecap="round" opacity=".9"/><line x1="-23" y1="-7" x2="-31" y2="4" stroke="#d5cdb8" stroke-width="2.6" stroke-linecap="round" opacity=".9"/><line x1="-38" y1="-7" x2="-46" y2="4" stroke="#d5cdb8" stroke-width="2.6" stroke-linecap="round" opacity=".9"/><line x1="-53" y1="-7" x2="-61" y2="4" stroke="#d5cdb8" stroke-width="2.6" stroke-linecap="round" opacity=".9"/><line x1="-68" y1="-7" x2="-76" y2="4" stroke="#d5cdb8" stroke-width="2.6" stroke-linecap="round" opacity=".9"/><line x1="-83" y1="-7" x2="-91" y2="4" stroke="#d5cdb8" stroke-width="2.6" stroke-linecap="round" opacity=".9"/><line x1="-98" y1="-7" x2="-106" y2="4" stroke="#d5cdb8" stroke-width="2.6" stroke-linecap="round" opacity=".9"/><line x1="-113" y1="-7" x2="-121" y2="4" stroke="#d5cdb8" stroke-width="2.6" stroke-linecap="round" opacity=".9"/><line x1="-128" y1="-7" x2="-136" y2="4" stroke="#d5cdb8" stroke-width="2.6" stroke-linecap="round" opacity=".9"/><path d="M0 0 C4 -23 40 -35 92 -35 C168 -35 226 -27 258 -15 L300 -37 L306 33 L258 13 C226 25 168 33 92 33 C40 33 4 21 0 0 Z" fill="#7b8aa6"/><path d="M178 -33 q13 -9 26 0 z" fill="#7b8aa6"/><path d="M204 -33 q13 -9 26 0 z" fill="#7b8aa6"/><path d="M230 -33 q13 -9 26 0 z" fill="#7b8aa6"/><path d="M256 -33 q13 -9 26 0 z" fill="#7b8aa6"/><path d="M8 8 C40 26 90 33 150 32 C200 31 236 24 258 13 C226 25 168 33 92 33 C48 33 16 22 8 8 Z" fill="#9fadc4" opacity=".85"/><path d="M84 26 q6 32 40 42 q-34 6 -58 -26 z" fill="#7b8aa6"/><ellipse cx="26" cy="-11" rx="4.6" ry="5.6" fill="#2f2b45"/><g opacity=".5" fill="#c8d3e2"><ellipse cx="120" cy="-22" rx="15" ry="7"/><ellipse cx="172" cy="-25" rx="11" ry="6"/><ellipse cx="220" cy="-18" rx="13" ry="6"/><ellipse cx="148" cy="4" rx="10" ry="5"/><ellipse cx="200" cy="10" rx="8" ry="4"/></g></g><g fill="#ffffff" opacity=".5"><circle cx="292" cy="244" r="7"/><circle cx="304" cy="216" r="5"/><circle cx="298" cy="190" r="3.4"/><circle cx="292" cy="168" r="2.6"/></g><g fill="#cbb98a" opacity=".95"><path d="M150 264 q19 -10 38 0 q-19 10 -38 0z"/><path d="M150 264 l-13 -8 v16 z"/><path d="M104 306 q17 -9 34 0 q-17 9 -34 0z"/><path d="M104 306 l-12 -7 v14 z"/><path d="M172 340 q15 -8 30 0 q-15 8 -30 0z"/><path d="M172 340 l-11 -6 v12 z"/></g></svg>
